<svg width="32" height="32" fill="none" xmlns="http://www.w3.org/2000/svg"><path opacity=".1" fill-rule="evenodd" clip-rule="evenodd" d="M0 16C0 7.163 7.163 0 16 0s16 7.163 16 16-7.163 16-16 16S0 24.837 0 16z" fill="#fff"/><path d="M6.327 11.544h3.146c.066 0 .13.018.184.05a.308.308 0 01.12.136c.347.798 1.793 3.922 3.116 4.177.983 0 .635-4.155-.614-4.155-.328 0 .582-.518.643-.54a7.51 7.51 0 013.547 0c.627.234.733.886.75 1.44.016.554-.697 2.916.241 3.171 1.229.336 2.81-3.094 3.179-3.936a.298.298 0 01.12-.133.353.353 0 01.183-.05h3.502c.054 0 .107.012.155.035a.317.317 0 01.118.095.264.264 0 01.03.275 26.492 26.492 0 01-2.585 4.2.532.532 0 00.066.728c1.048.999 3.916 3.828 2.277 3.828H20.97a.71.71 0 01-.265-.05.643.643 0 01-.218-.144c-.549-.54-2.146-2.04-2.867-1.92-.598.098-.655 1.002-.627 1.592a.545.545 0 01-.162.417.687.687 0 01-.444.196c-.627.032-1.483.047-1.56.044-2.499-.143-3.978-1.626-5.39-3.281a19.87 19.87 0 01-3.42-5.789.264.264 0 01.045-.263.324.324 0 01.116-.09.365.365 0 01.15-.033z" fill="#fff"/></svg>