<svg width="32" height="32" fill="none" xmlns="http://www.w3.org/2000/svg"><path opacity=".1" fill-rule="evenodd" clip-rule="evenodd" d="M0 16C0 7.163 7.163 0 16 0s16 7.163 16 16-7.163 16-16 16S0 24.837 0 16z" fill="#fff"/><path d="M16 8.459a7.543 7.543 0 00-6.31 11.675l-.972 3.29 3.417-.947A7.543 7.543 0 0023.543 16 7.543 7.543 0 0016 8.459z" fill="#fff"/><path d="M20.145 18.073a.274.274 0 00-.159-.227c-.608-.28-1.22-.559-1.828-.838a.172.172 0 00-.202.043l-.826.932a.226.226 0 01-.257.062 5.863 5.863 0 01-1.59-.978 5.925 5.925 0 01-1.337-1.66 1.446 1.446 0 00.57-.749 1.258 1.258 0 00-.027-.82c-.165-.437-.494-1.284-.621-1.415a.848.848 0 00-.047-.043.548.548 0 00-.341-.137c-.043-.003-.09-.003-.14-.003a2.6 2.6 0 00-.363.01c-.264.037-.456.213-.577.363a2.44 2.44 0 00-.435.788l-.028.09a2.22 2.22 0 00.05 1.347c.143.407.35.891.664 1.403.531.872 1.108 1.413 1.5 1.77.44.406.987.906 1.853 1.322.8.385 1.527.528 2.014.587.199.018.565.021.984-.137.193-.075.354-.165.484-.26a1.56 1.56 0 00.65-1.031v-.01a1.86 1.86 0 00.009-.41z" fill="#00A76B"/></svg>