<svg width="32" height="32" fill="none" xmlns="http://www.w3.org/2000/svg"><path opacity=".1" fill-rule="evenodd" clip-rule="evenodd" d="M0 16C0 7.163 7.163 0 16 0s16 7.163 16 16-7.163 16-16 16S0 24.837 0 16z" fill="#fff"/><path d="M8.972 14.818l13.746-5.532c.638-.24 1.195.163.988 1.17l.001-.002-2.34 11.508c-.174.816-.638 1.015-1.288.63l-3.564-2.741-1.72 1.728c-.19.199-.35.366-.718.366l.253-3.785 6.606-6.229c.287-.264-.065-.413-.444-.15l-8.163 5.364L8.81 16c-.764-.252-.78-.797.162-1.181z" fill="#fff"/></svg>